<svg width="211" height="330" viewBox="0 0 211 330" fill="none" xmlns="http://www.w3.org/2000/svg">
<path d="M0.52066 58.6124C0.52066 69.5697 13.4152 92.9919 31.5019 106.246L137.433 120.552C142.807 117.482 144.983 115.571 147.603 111.877C160.557 93.2935 164.133 85.0921 164.659 73.983C161.976 50.6793 156.29 39.4008 136.025 23.6099C112.095 7.92481 93.9338 3.52145 66.082 2.60834C52.6255 1.23866 37.6043 5.80423 23.8348 17.2181C8.25902 30.1293 0.52066 35.6325 0.52066 58.6124Z" fill="#DECCDB"/>
<path d="M24.9533 40.7867C27.2871 38.7685 28.6937 37.5522 31.189 35.7846C35.1007 33.0136 41.6784 31.3776 44.6455 30.4581C90.2662 16.3213 156.271 41.7022 147.603 90.5712C139.269 124.544 128.673 138.654 98.9409 154.793C78.9923 162.697 70.3929 162.163 59.9796 151.749C34.3208 129.645 36.6986 111.028 28.6854 100.615C20.6723 90.2026 5.90812 57.2558 24.9301 40.8067L24.9533 40.7867Z" fill="#F4F4F4"/>
<path d="M73.3592 48.0801C89.6464 54.2165 102.448 62.5658 120.487 75.9902C128.428 85.37 135.95 96.211 139.925 114.431C146.033 105.593 151.255 97.7078 151.202 81.7273C150.319 65.2013 143.444 56.4279 131.467 45.2891C112.591 31.4899 100.952 27.0082 78.2146 25.1318C52.7714 25.1228 39.2466 28.0681 28.0946 36.4509C19.9689 43.3115 16.841 47.9195 14.4682 57.8487C12.5732 67.985 12.678 73.2603 15.5646 81.7273C17.7295 86.3405 19.4333 88.7225 23.3959 92.5812C23.5372 86.6736 20.2634 84.2082 20.2634 75.9902C20.2634 67.7723 32.4673 47.2632 36.3957 45.2891C40.3242 43.315 57.9857 43.5795 73.3592 48.0801Z" fill="#E1DFE1"/>
<path d="M36.3525 31.5235C36.3525 31.5235 36.0683 45.8559 35.841 45.5187C35.6136 45.1814 34.7878 32.1454 34.7878 32.1454L36.3525 31.5235Z" fill="#F4F4F4"/>
<path d="M159.652 164.533C136.439 159.326 128.551 153.413 124.289 137.14L76.722 160.272C77.5329 174.623 71.1365 179.595 53.8773 185.839C19.1806 191.28 10.561 198.692 11.3172 218.407C12.7445 223.627 14.4466 226.624 21.6442 228.603L30.0937 235.451L44.489 274.411H168.414L198.457 235.451C210.487 222.826 212.525 214.948 208.158 199.536C199.99 175.665 189.43 167.944 159.652 164.533Z" fill="#F4F4F4"/>
<path d="M121.16 140.116C107.137 153.332 103.042 158.844 84.8585 159.663C100.194 155.731 108.132 151.415 121.16 140.116Z" fill="#E1DFE1"/>
<path d="M123.037 138.357C122.392 138.958 121.766 139.544 121.16 140.116M121.16 140.116C107.137 153.332 103.042 158.844 84.8585 159.663C100.194 155.731 108.132 151.415 121.16 140.116Z" stroke="#E1DFE1" stroke-width="2"/>
<path d="M21.3313 228.298C12.8355 228.25 5.29309 215.305 15.6984 200.753C8.02474 214.161 32.6058 229.273 34.7878 233.016C36.8939 236.629 51.0869 273.258 55.0537 274.563H55.442C55.3266 274.611 55.1968 274.61 55.0537 274.563H44.6454L29.9372 235.603L21.3313 228.298Z" fill="#E1DFE1"/>
<path d="M199.395 224.189C207.87 211.213 204.089 193.448 183.279 169.707C203.749 176.251 216.438 204.469 207.375 224.189C199.395 240.276 183.793 255.382 168.414 274.563H156.835C173.936 253.857 189.079 246.299 199.395 224.189Z" fill="#E1DFE1"/>
<path d="M72.3126 316.302C85.5644 304.23 87.1178 296.538 85.0179 282.051H127.369C121.897 294.248 125.7 301.855 140.339 316.302H72.3126Z" fill="#F4F4F4"/>
<path d="M127.369 281.532H84.7532C85.6796 285.295 85.6796 286.981 85.6796 291.133L125.638 296.322C124.06 290.355 125.873 286.381 127.369 281.532Z" fill="#E1DFE1"/>
<path d="M55.3722 329.016V316.302H159.926V329.016H55.3722Z" fill="#D0CCD0"/>
<rect x="72.3126" y="274.527" width="68.0263" height="7.52475" fill="#D0CCD0"/>
<path d="M43.3938 14.9421C42.3195 8.74894 38.7917 6.98344 33.3796 8.09381L20.7055 36.4125C26.9595 37.6504 31.6584 37.1064 36.1685 33.3995C41.4839 29.0307 43.3197 24.3744 43.3938 14.9421Z" fill="#F5B2D8"/>
<path d="M39.5651 12.9601C36.7817 7.33464 32.2975 5.6622 25.4939 12.9601C20.3911 17.6733 19.3987 21.2167 17.7624 26.0356C15.9082 31.9401 16.0615 34.5194 20.3911 36.2222C23.4837 37.4385 34.1822 31.6798 35.8831 28.943C40.9859 23.9257 40.4928 17.2172 39.5651 12.9601Z" fill="#FFCFEA"/>
<path d="M34.9443 18.4423C33.849 16.3117 29.5397 14.0999 25.8689 17.5292C23.3085 20.3945 22.2701 25.2906 24.1478 27.1168C25.0866 28.1821 28.5289 28.6387 30.876 27.8778C35.4137 24.5297 35.5701 20.2685 34.9443 18.4423Z" fill="#ECECEC"/>
<path d="M25.2313 20.4855C25.2313 20.4855 26.9685 17.5508 27.5975 19.0563C27.8803 19.5774 27.9139 20.041 27.7672 21.1507C27.3812 22.6419 27.0837 23.1502 26.3934 23.3992C24.9745 23.3088 24.7874 22.5978 25.2313 20.4855Z" fill="#D8D8D8"/>
<path d="M22.7395 15.8484L23.8231 14.6246L24.1763 16.5339L24.7736 19.0443L23.645 16.8724L22.7395 15.8484Z" fill="#F5B2D8"/>
<path d="M28.818 9.91315L30.876 8.69567L29.8791 12.3256L28.818 15.9218L29.0125 12.2148L28.818 9.91315Z" fill="#F5B2D8"/>
<path d="M37.7607 10.2176L39.2459 12.0039L36.2503 14.3762L33.2231 16.6846L35.6151 13.7923L37.7607 10.2176Z" fill="#F5B2D8"/>
<path d="M41.4142 21.5136L40.9405 23.2295L37.8503 23.1447L34.7878 23.0086L37.931 22.5125L41.4142 21.5136Z" fill="#F5B2D8"/>
<path d="M35.0924 32.9835L33.2791 33.1985L32.2034 30.3797L31.1868 27.5667L32.8363 30.2159L35.0924 32.9835Z" fill="#F5B2D8"/>
<path d="M26.559 35.387L24.4607 35.9367L25.5441 31.7551L26.559 28.1753L26.2589 32.0901L26.559 35.387Z" fill="#F5B2D8"/>
<path d="M16.7599 32.5851L16.7054 30.4924L20.8425 28.7764L24.4364 27.376L20.9901 29.5424L16.7599 32.5851Z" fill="#F5B2D8"/>
<path d="M18.6922 23.2753L19.1407 22.2402L21.5082 22.926L23.3673 23.3663L21.3231 23.2595L18.6922 23.2753Z" fill="#F5B2D8"/>
<path d="M30.2454 28.0887L26.6648 22.3924L31.1933 27.6166C30.9869 28.054 30.7315 28.1296 30.2454 28.0887Z" fill="#D9D9D9"/>
<path d="M23.8348 26.3491L26.7861 21.1748L24.8592 27.4416C24.4202 27.4862 23.7422 26.6772 23.8348 26.3491Z" fill="#D9D9D9"/>
<path d="M28.0596 16.1528L27.2958 20.0708L26.9643 16.7227C27.2642 16.6251 28.0605 15.9059 28.0596 16.1528Z" fill="#D9D9D9"/>
<path d="M24.4608 19.8052L26.3384 21.4792L23.9914 20.5661C24.0395 20.3313 24.2908 19.7081 24.4608 19.8052Z" fill="#D9D9D9"/>
<path d="M33.2425 24.8669L27.1207 20.5662L34.1114 24.0056C34.0454 24.5817 33.7923 24.7539 33.2425 24.8669Z" fill="#D9D9D9"/>
<path d="M35.1008 19.024L26.3384 20.2089L34.3184 17.6746C34.7309 18.0931 35.364 18.5411 35.1008 19.024Z" fill="#D9D9D9"/>
<path d="M149.438 59.1505C155.843 59.9532 158.606 57.1843 159.089 51.8251L134.921 31.7907C131.883 37.2499 131.051 41.7806 133.385 47.056C136.135 53.2735 140.181 56.3368 149.438 59.1505Z" fill="#F5B2D8"/>
<path d="M152.502 56.1645C158.845 55.2117 161.795 51.5258 156.596 43.0711C153.445 36.9513 150.248 34.9967 145.985 32.0718C140.716 28.6282 138.134 28.0203 135.199 31.5535C133.103 34.0772 135.654 45.7082 137.851 48.0873C141.302 54.2956 148.044 55.789 152.502 56.1645Z" fill="#FFCFEA"/>
<path d="M148.454 50.2695C150.868 49.8703 154.298 46.5042 151.993 42.0905C149.92 38.8742 145.406 36.4831 143.063 37.6988C141.742 38.2624 140.291 41.3327 140.356 43.7381C142.329 48.9348 146.475 50.3204 148.454 50.2695Z" fill="#ECECEC"/>
<path d="M149.27 40.6369C149.27 40.6369 151.652 43.1074 149.988 43.2545C149.393 43.366 148.927 43.2624 147.878 42.803C146.524 42.0099 146.11 41.5851 146.066 40.8703C146.568 39.5763 147.322 39.6091 149.27 40.6369Z" fill="#D8D8D8"/>
<path d="M154.557 39.6677L155.445 41.0322L153.465 40.8052L150.821 40.6305L153.286 40.2123L154.557 39.6677Z" fill="#F5B2D8"/>
<path d="M158.626 47.051L159.225 49.3203L155.944 47.3364L152.716 45.3024L156.306 46.5623L158.626 47.051Z" fill="#F5B2D8"/>
<path d="M155.724 55.2838L153.535 56.1459L152.073 52.6681L150.684 49.1795L152.833 52.247L155.724 55.2838Z" fill="#F5B2D8"/>
<path d="M143.55 55.3961L142 54.4559L142.982 51.6052L144.008 48.7951L143.581 51.8642L143.55 55.3961Z" fill="#F5B2D8"/>
<path d="M134.107 46.1757L134.423 44.4259L137.509 44.2452L140.572 44.1179L137.486 44.8818L134.107 46.1757Z" fill="#F5B2D8"/>
<path d="M134.226 37.5358L134.296 35.4234L138.094 37.6484L141.32 39.6345L137.556 38.216L134.226 37.5358Z" fill="#F5B2D8"/>
<path d="M139.834 29.2331L141.908 29.7914L142.392 34.1404L142.724 37.8921L141.596 34.0548L139.834 29.2331Z" fill="#F5B2D8"/>
<path d="M148.429 33.7402L149.317 34.4589L147.953 36.4623L146.979 38.064L147.679 36.193L148.429 33.7402Z" fill="#F5B2D8"/>
<path d="M140.332 43.0899L146.978 41.4158L140.521 44.1094C140.151 43.79 140.151 43.5304 140.332 43.0899Z" fill="#D9D9D9"/>
<path d="M143.909 37.6312L148.14 41.8832L142.536 38.2665C142.62 37.845 143.613 37.4494 143.909 37.6312Z" fill="#D9D9D9"/>
<path d="M152.709 44.5295L149.078 42.6786L152.468 43.3444C152.476 43.6519 152.952 44.6022 152.709 44.5295Z" fill="#D9D9D9"/>
<path d="M150.164 40.1178L147.971 41.3778L149.552 39.4596C149.769 39.5727 150.309 39.9879 150.164 40.1178Z" fill="#D9D9D9"/>
<path d="M142.629 46.8164L148.641 42.3715L143.224 47.8755C142.676 47.6465 142.581 47.3609 142.629 46.8164Z" fill="#D9D9D9"/>
<path d="M147.836 50.2458L149.22 41.7475L149.391 49.9105C148.859 50.1725 148.234 50.6312 147.836 50.2458Z" fill="#D9D9D9"/>
<path d="M50.5972 14.1743C48.3832 14.3915 47.6938 15.1637 48.7234 19.2025C46.3346 17.3542 45.255 16.7773 44.005 18.3458C43.0896 20.3021 43.2514 21.2922 47.3912 22.4585C45.3472 24.658 44.6543 25.7767 46.2103 27.0657C48.186 28.0537 49.0808 27.8537 50.5139 23.9309C51.6107 26.6885 52.3267 27.7936 54.2262 27.0467C56.0394 25.8022 56.2235 24.9046 53.2578 21.8848C56.3203 21.9217 57.6498 21.6889 57.6325 19.7107C57.104 17.6259 56.2327 17.112 52.2267 18.6526C52.6871 15.7326 52.6313 14.4307 50.5972 14.1743Z" fill="#FFCFEA"/>
<path d="M52.634 21.0096C52.634 22.1811 51.6492 23.1308 50.4343 23.1308C49.2194 23.1308 48.2346 22.1811 48.2346 21.0096C48.2346 19.838 49.2194 18.8883 50.4343 18.8883C51.6492 18.8883 52.634 19.838 52.634 21.0096Z" fill="#AFE9FF"/>
<path d="M7.41121 44.0025C5.19714 44.2198 4.50781 44.9919 5.53738 49.0308C3.1486 47.1824 2.06894 46.6055 0.818926 48.1741C-0.0964403 50.1303 0.0653488 51.1204 4.20517 52.2867C2.16121 54.4862 1.46825 55.6049 3.02429 56.894C4.99995 57.8819 5.89479 57.682 7.32786 53.7592C8.42468 56.5168 9.14066 57.6219 11.0402 56.8749C12.8533 55.6304 13.0374 54.7328 10.0718 51.713C13.1343 51.75 14.4637 51.5171 14.4465 49.5389C13.9179 47.4542 13.0467 46.9403 9.04062 48.4808C9.50105 45.5609 9.44528 44.2589 7.41121 44.0025Z" fill="#FFCFEA"/>
<path d="M9.44797 50.8378C9.44797 52.0093 8.46313 52.9591 7.24826 52.9591C6.0334 52.9591 5.04856 52.0093 5.04856 50.8378C5.04856 49.6662 6.0334 48.7165 7.24826 48.7165C8.46313 48.7165 9.44797 49.6662 9.44797 50.8378Z" fill="#AFE9FF"/>
<path d="M77.1973 12.3481C74.9832 12.5653 74.2939 13.3375 75.3235 17.3763C72.9347 15.528 71.855 14.9511 70.605 16.5197C69.6896 18.4759 69.8514 19.466 73.9912 20.6323C71.9473 22.8318 71.2543 23.9505 72.8104 25.2395C74.786 26.2275 75.6809 26.0275 77.1139 22.1047C78.2107 24.8623 78.9267 25.9674 80.8262 25.2205C82.6394 23.976 82.8235 23.0784 79.8579 20.0586C82.9203 20.0955 84.2498 19.8627 84.2325 17.8845C83.704 15.7998 82.8328 15.2858 78.8267 16.8264C79.2871 13.9064 79.2314 12.6045 77.1973 12.3481Z" fill="#FFCFEA"/>
<path d="M79.234 19.1834C79.234 20.3549 78.2492 21.3046 77.0343 21.3046C75.8195 21.3046 74.8346 20.3549 74.8346 19.1834C74.8346 18.0118 75.8195 17.0621 77.0343 17.0621C78.2492 17.0621 79.234 18.0118 79.234 19.1834Z" fill="#AFE9FF"/>
<path d="M90.3408 1.39077C88.1267 1.60799 87.4374 2.38015 88.4669 6.41899C86.0782 4.57063 84.9985 3.99378 83.7485 5.56232C82.8331 7.51852 82.9949 8.50864 87.1347 9.67492C85.0908 11.8745 84.3978 12.9931 85.9539 14.2822C87.9295 15.2702 88.8244 15.0702 90.2574 11.1474C91.3542 13.905 92.0702 15.0101 93.9697 14.2631C95.7829 13.0187 95.967 12.121 93.0014 9.10125C96.0638 9.13821 97.3933 8.90533 97.376 6.92716C96.8475 4.84242 95.9763 4.32849 91.9702 5.86903C92.4306 2.94911 92.3748 1.64716 90.3408 1.39077Z" fill="#FFCFEA"/>
<path d="M92.3775 8.22602C92.3775 9.39757 91.3927 10.3473 90.1778 10.3473C88.963 10.3473 87.9781 9.39757 87.9781 8.22602C87.9781 7.05447 88.963 6.10474 90.1778 6.10474C91.3927 6.10474 92.3775 7.05447 92.3775 8.22602Z" fill="#AFE9FF"/>
<path d="M104.423 16.0006C102.209 16.2179 101.52 16.99 102.549 21.0289C100.161 19.1805 99.0809 18.6036 97.8309 20.1722C96.9155 22.1284 97.0773 23.1185 101.217 24.2848C99.1732 26.4843 98.4802 27.603 100.036 28.8921C102.012 29.88 102.907 29.68 104.34 25.7573C105.437 28.5149 106.153 29.62 108.052 28.873C109.865 27.6285 110.049 26.7309 107.084 23.7111C110.146 23.7481 111.476 23.5152 111.458 21.537C110.93 19.4523 110.059 18.9384 106.053 20.4789C106.513 17.559 106.457 16.257 104.423 16.0006Z" fill="#FFCFEA"/>
<path d="M106.46 22.8359C106.46 24.0074 105.475 24.9572 104.26 24.9572C103.045 24.9572 102.061 24.0074 102.061 22.8359C102.061 21.6643 103.045 20.7146 104.26 20.7146C105.475 20.7146 106.46 21.6643 106.46 22.8359Z" fill="#AFE9FF"/>
<path d="M124.452 26.0448C122.237 26.262 121.548 27.0342 122.578 31.073C120.189 29.2247 119.109 28.6478 117.859 30.2163C116.944 32.1726 117.106 33.1627 121.246 34.329C119.202 36.5285 118.509 37.6472 120.065 38.9362C122.04 39.9242 122.935 39.7242 124.368 35.8014C125.465 38.559 126.181 39.6641 128.081 38.9172C129.894 37.6727 130.078 36.7751 127.112 33.7553C130.175 33.7922 131.504 33.5594 131.487 31.5812C130.958 29.4964 130.087 28.9825 126.081 30.5231C126.541 27.6031 126.486 26.3012 124.452 26.0448Z" fill="#FFCFEA"/>
<path d="M126.488 32.8801C126.488 34.0516 125.503 35.0013 124.289 35.0013C123.074 35.0013 122.089 34.0516 122.089 32.8801C122.089 31.7085 123.074 30.7588 124.289 30.7588C125.503 30.7588 126.488 31.7085 126.488 32.8801Z" fill="#AFE9FF"/>
<path d="M158.249 70.1784C156.035 70.3956 155.346 71.1678 156.375 75.2066C153.987 73.3583 152.907 72.7814 151.657 74.35C150.742 76.3062 150.903 77.2963 155.043 78.4626C152.999 80.6621 152.306 81.7808 153.862 83.0699C155.838 84.0578 156.733 83.8578 158.166 79.9351C159.263 82.6927 159.979 83.7978 161.878 83.0508C163.691 81.8063 163.875 80.9087 160.91 77.8889C163.972 77.9259 165.302 77.693 165.284 75.7148C164.756 73.6301 163.885 73.1161 159.879 74.6567C160.339 71.7368 160.283 70.4348 158.249 70.1784Z" fill="#FFCFEA"/>
<path d="M160.286 77.0137C160.286 78.1852 159.301 79.135 158.086 79.135C156.871 79.135 155.887 78.1852 155.887 77.0137C155.887 75.8421 156.871 74.8924 158.086 74.8924C159.301 74.8924 160.286 75.8421 160.286 77.0137Z" fill="#AFE9FF"/>
<path d="M115.376 6.56512C113.162 6.78234 112.473 7.55449 113.502 11.5933C111.114 9.74498 110.034 9.16812 108.784 10.7367C107.869 12.6929 108.03 13.683 112.17 14.8493C110.126 17.0488 109.433 18.1675 110.989 19.4566C112.965 20.4445 113.86 20.2445 115.293 16.3218C116.39 19.0794 117.106 20.1844 119.005 19.4375C120.818 18.193 121.002 17.2954 118.037 14.2756C121.099 14.3126 122.429 14.0797 122.411 12.1015C121.883 10.0168 121.012 9.50283 117.006 11.0434C117.466 8.12345 117.41 6.8215 115.376 6.56512Z" fill="#FFCFEA"/>
<path d="M117.413 13.4004C117.413 14.5719 116.428 15.5216 115.213 15.5216C113.998 15.5216 113.014 14.5719 113.014 13.4004C113.014 12.2288 113.998 11.2791 115.213 11.2791C116.428 11.2791 117.413 12.2288 117.413 13.4004Z" fill="#AFE9FF"/>
<path d="M131.649 18.4355C129.435 18.6527 128.746 19.4249 129.775 23.4637C127.387 21.6154 126.307 21.0385 125.057 22.6071C124.142 24.5633 124.303 25.5534 128.443 26.7197C126.399 28.9192 125.706 30.0379 127.262 31.3269C129.238 32.3149 130.133 32.1149 131.566 28.1921C132.663 30.9497 133.379 32.0548 135.278 31.3079C137.091 30.0634 137.275 29.1658 134.31 26.146C137.372 26.1829 138.702 25.9501 138.684 23.9719C138.156 21.8872 137.285 21.3732 133.279 22.9138C133.739 19.9938 133.683 18.6919 131.649 18.4355Z" fill="#FFCFEA"/>
<path d="M133.686 25.2708C133.686 26.4423 132.701 27.392 131.486 27.392C130.271 27.392 129.287 26.4423 129.287 25.2708C129.287 24.0992 130.271 23.1495 131.486 23.1495C132.701 23.1495 133.686 24.0992 133.686 25.2708Z" fill="#AFE9FF"/>
<path d="M61.8631 0.782116C59.6491 0.999337 58.9597 1.77149 59.9893 5.81034C57.6005 3.96198 56.5209 3.38512 55.2709 4.95366C54.3555 6.90987 54.5173 7.89999 58.6571 9.06627C56.6131 11.2658 55.9202 12.3845 57.4762 13.6736C59.4519 14.6615 60.3467 14.4615 61.7798 10.5388C62.8766 13.2964 63.5926 14.4014 65.4921 13.6545C67.3053 12.41 67.4894 11.5124 64.5237 8.49259C67.5862 8.52955 68.9157 8.29668 68.8984 6.31851C68.3699 4.23376 67.4986 3.71983 63.4926 5.26038C63.953 2.34045 63.8972 1.0385 61.8631 0.782116Z" fill="#FFCFEA"/>
<path d="M63.8999 7.61737C63.8999 8.78892 62.9151 9.73865 61.7002 9.73865C60.4853 9.73865 59.5005 8.78892 59.5005 7.61737C59.5005 6.44582 60.4853 5.49609 61.7002 5.49609C62.9151 5.49609 63.8999 6.44582 63.8999 7.61737Z" fill="#AFE9FF"/>
<path d="M49.0325 2.60832C46.8185 2.82554 46.1291 3.59769 47.1587 7.63654C44.7699 5.78818 43.6902 5.21133 42.4402 6.77987C41.5249 8.73607 41.6867 9.72619 45.8265 10.8925C43.7825 13.092 43.0896 14.2107 44.6456 15.4998C46.6213 16.4877 47.5161 16.2877 48.9492 12.365C50.046 15.1226 50.762 16.2276 52.6615 15.4807C54.4746 14.2362 54.6588 13.3386 51.6931 10.3188C54.7556 10.3558 56.085 10.1229 56.0678 8.14471C55.5392 6.05996 54.668 5.54604 50.6619 7.08658C51.1224 4.16665 51.0666 2.8647 49.0325 2.60832Z" fill="#AFE9FF"/>
<path d="M51.0693 9.44357C51.0693 10.6151 50.0844 11.5649 48.8696 11.5649C47.6547 11.5649 46.6699 10.6151 46.6699 9.44357C46.6699 8.27202 47.6547 7.32229 48.8696 7.32229C50.0844 7.32229 51.0693 8.27202 51.0693 9.44357Z" fill="#FFCFEA"/>
<path d="M11.4794 30.9146C9.26538 31.1319 8.57605 31.904 9.60562 35.9429C7.21684 34.0945 6.13718 33.5176 4.88716 35.0862C3.9718 37.0424 4.13359 38.0325 8.2734 39.1988C6.22945 41.3983 5.53649 42.517 7.09253 43.8061C9.06819 44.794 9.96303 44.5941 11.3961 40.6713C12.4929 43.4289 13.2089 44.534 15.1084 43.787C16.9216 42.5425 17.1057 41.6449 14.14 38.6251C17.2025 38.6621 18.532 38.4292 18.5147 36.451C17.9862 34.3663 17.1149 33.8524 13.1089 35.3929C13.5693 32.473 13.5135 31.171 11.4794 30.9146Z" fill="#AFE9FF"/>
<path d="M13.5162 37.7499C13.5162 38.9214 12.5314 39.8712 11.3165 39.8712C10.1016 39.8712 9.1168 38.9214 9.1168 37.7499C9.1168 36.5783 10.1016 35.6286 11.3165 35.6286C12.5314 35.6286 13.5162 36.5783 13.5162 37.7499Z" fill="#FFCFEA"/>
<path d="M7.41121 57.3949C5.19714 57.6121 4.50781 58.3842 5.53738 62.4231C3.1486 60.5747 2.06894 59.9979 0.818926 61.5664C-0.0964403 63.5226 0.0653488 64.5127 4.20517 65.679C2.16121 67.8786 1.46825 68.9972 3.02429 70.2863C4.99995 71.2743 5.89479 71.0743 7.32786 67.1515C8.42468 69.9091 9.14066 71.0142 11.0402 70.2672C12.8533 69.0228 13.0374 68.1251 10.0718 65.1053C13.1343 65.1423 14.4637 64.9094 14.4465 62.9313C13.9179 60.8465 13.0467 60.3326 9.04062 61.8731C9.50105 58.9532 9.44528 57.6513 7.41121 57.3949Z" fill="#AFE9FF"/>
<path d="M9.44797 64.2301C9.44797 65.4017 8.46313 66.3514 7.24826 66.3514C6.0334 66.3514 5.04856 65.4017 5.04856 64.2301C5.04856 63.0586 6.0334 62.1088 7.24826 62.1088C8.46313 62.1088 9.44797 63.0586 9.44797 64.2301Z" fill="#FFCFEA"/>
<path d="M77.1973 1.08651C74.9832 1.30373 74.2939 2.07588 75.3235 6.11473C72.9347 4.26637 71.855 3.68951 70.605 5.25805C69.6896 7.21426 69.8514 8.20438 73.9912 9.37066C71.9473 11.5702 71.2543 12.6889 72.8104 13.9779C74.786 14.9659 75.6809 14.7659 77.1139 10.8431C78.2107 13.6007 78.9267 14.7058 80.8262 13.9589C82.6394 12.7144 82.8235 11.8168 79.8579 8.79698C82.9203 8.83394 84.2498 8.60107 84.2325 6.6229C83.704 4.53815 82.8328 4.02422 78.8267 5.56477C79.2871 2.64484 79.2314 1.34289 77.1973 1.08651Z" fill="#AFE9FF"/>
<path d="M79.234 7.92176C79.234 9.09331 78.2492 10.043 77.0343 10.043C75.8195 10.043 74.8346 9.09331 74.8346 7.92176C74.8346 6.75021 75.8195 5.80048 77.0343 5.80048C78.2492 5.80048 79.234 6.75021 79.234 7.92176Z" fill="#FFCFEA"/>
<path d="M90.3408 13.5657C88.1267 13.7829 87.4374 14.555 88.4669 18.5939C86.0782 16.7455 84.9985 16.1687 83.7485 17.7372C82.8331 19.6934 82.9949 20.6835 87.1347 21.8498C85.0908 24.0493 84.3978 25.168 85.9539 26.4571C87.9295 27.4451 88.8244 27.2451 90.2574 23.3223C91.3542 26.0799 92.0702 27.185 93.9697 26.438C95.7829 25.1936 95.967 24.2959 93.0014 21.2761C96.0638 21.3131 97.3933 21.0802 97.376 19.102C96.8475 17.0173 95.9763 16.5034 91.9702 18.0439C92.4306 15.124 92.3748 13.822 90.3408 13.5657Z" fill="#AFE9FF"/>
<path d="M92.3775 20.4009C92.3775 21.5725 91.3927 22.5222 90.1778 22.5222C88.963 22.5222 87.9781 21.5725 87.9781 20.4009C87.9781 19.2294 88.963 18.2796 90.1778 18.2796C91.3927 18.2796 92.3775 19.2294 92.3775 20.4009Z" fill="#FFCFEA"/>
<path d="M122.574 13.2613C120.36 13.4785 119.67 14.2506 120.7 18.2895C118.311 16.4411 117.232 15.8643 115.982 17.4328C115.066 19.389 115.228 20.3791 119.368 21.5454C117.324 23.745 116.631 24.8636 118.187 26.1527C120.163 27.1407 121.057 26.9407 122.49 23.0179C123.587 25.7755 124.303 26.8806 126.203 26.1336C128.016 24.8892 128.2 23.9915 125.234 20.9717C128.297 21.0087 129.626 20.7758 129.609 18.7977C129.081 16.7129 128.209 16.199 124.203 17.7395C124.664 14.8196 124.608 13.5176 122.574 13.2613Z" fill="#AFE9FF"/>
<path d="M124.611 20.0965C124.611 21.2681 123.626 22.2178 122.411 22.2178C121.196 22.2178 120.211 21.2681 120.211 20.0965C120.211 18.925 121.196 17.9752 122.411 17.9752C123.626 17.9752 124.611 18.925 124.611 20.0965Z" fill="#FFCFEA"/>
<path d="M103.172 4.13013C100.957 4.34736 100.268 5.11951 101.298 9.15836C98.9089 7.31 97.8293 6.73314 96.5792 8.30168C95.6639 10.2579 95.8257 11.248 99.9655 12.4143C97.9215 14.6138 97.2286 15.7325 98.7846 17.0216C100.76 18.0095 101.655 17.8095 103.088 13.8868C104.185 16.6444 104.901 17.7495 106.8 17.0025C108.614 15.758 108.798 14.8604 105.832 11.8406C108.895 11.8776 110.224 11.6447 110.207 9.66653C109.678 7.58178 108.807 7.06785 104.801 8.6084C105.261 5.68847 105.206 4.38652 103.172 4.13013Z" fill="#AFE9FF"/>
<path d="M105.208 10.9654C105.208 12.1369 104.223 13.0867 103.009 13.0867C101.794 13.0867 100.809 12.1369 100.809 10.9654C100.809 9.79383 101.794 8.8441 103.009 8.8441C104.223 8.8441 105.208 9.79383 105.208 10.9654Z" fill="#FFCFEA"/>
<path d="M114.124 21.7836C111.91 22.0009 111.221 22.773 112.251 26.8119C109.862 24.9635 108.782 24.3866 107.532 25.9552C106.617 27.9114 106.779 28.9015 110.918 30.0678C108.874 32.2673 108.181 33.386 109.737 34.6751C111.713 35.663 112.608 35.463 114.041 31.5403C115.138 34.2979 115.854 35.403 117.753 34.656C119.566 33.4115 119.751 32.5139 116.785 29.4941C119.847 29.5311 121.177 29.2982 121.16 27.32C120.631 25.2353 119.76 24.7213 115.754 26.2619C116.214 23.342 116.158 22.04 114.124 21.7836Z" fill="#AFE9FF"/>
<path d="M116.161 28.6189C116.161 29.7904 115.176 30.7402 113.961 30.7402C112.747 30.7402 111.762 29.7904 111.762 28.6189C111.762 27.4473 112.747 26.4976 113.961 26.4976C115.176 26.4976 116.161 27.4473 116.161 28.6189Z" fill="#FFCFEA"/>
<path d="M157.623 58.0037C155.409 58.2209 154.72 58.993 155.75 63.0319C153.361 61.1835 152.281 60.6067 151.031 62.1752C150.116 64.1314 150.278 65.1215 154.417 66.2878C152.373 68.4873 151.68 69.606 153.236 70.8951C155.212 71.8831 156.107 71.6831 157.54 67.7603C158.637 70.5179 159.353 71.623 161.252 70.876C163.066 69.6316 163.25 68.7339 160.284 65.7141C163.346 65.7511 164.676 65.5182 164.659 63.54C164.13 61.4553 163.259 60.9414 159.253 62.4819C159.713 59.562 159.657 58.26 157.623 58.0037Z" fill="#AFE9FF"/>
<path d="M159.66 64.8389C159.66 66.0105 158.675 66.9602 157.46 66.9602C156.246 66.9602 155.261 66.0105 155.261 64.8389C155.261 63.6674 156.246 62.7176 157.46 62.7176C158.675 62.7176 159.66 63.6674 159.66 64.8389Z" fill="#FFCFEA"/>
<path d="M157.31 82.3532C155.096 82.5704 154.407 83.3425 155.437 87.3814C153.048 85.533 151.968 84.9562 150.718 86.5247C149.803 88.4809 149.965 89.471 154.104 90.6373C152.06 92.8368 151.367 93.9555 152.923 95.2446C154.899 96.2326 155.794 96.0326 157.227 92.1098C158.324 94.8674 159.04 95.9725 160.939 95.2255C162.753 93.9811 162.937 93.0834 159.971 90.0636C163.033 90.1006 164.363 89.8677 164.346 87.8895C163.817 85.8048 162.946 85.2909 158.94 86.8314C159.4 83.9115 159.344 82.6095 157.31 82.3532Z" fill="#AFE9FF"/>
<path d="M159.347 89.1884C159.347 90.36 158.362 91.3097 157.147 91.3097C155.933 91.3097 154.948 90.36 154.948 89.1884C154.948 88.0169 155.933 87.0671 157.147 87.0671C158.362 87.0671 159.347 88.0169 159.347 89.1884Z" fill="#FFCFEA"/>
<path d="M64.6796 11.7393C62.4656 11.9566 61.7762 12.7287 62.8058 16.7676C60.417 14.9192 59.3374 14.3423 58.0874 15.9109C57.172 17.8671 57.3338 18.8572 61.4736 20.0235C59.4296 22.223 58.7367 23.3417 60.2927 24.6308C62.2684 25.6187 63.1632 25.4187 64.5963 21.496C65.6931 24.2536 66.4091 25.3587 68.3086 24.6117C70.1218 23.3672 70.3059 22.4696 67.3402 19.4498C70.4027 19.4868 71.7322 19.2539 71.7149 17.2757C71.1864 15.191 70.3151 14.6771 66.3091 16.2176C66.7695 13.2977 66.7137 11.9957 64.6796 11.7393Z" fill="#AFE9FF"/>
<path d="M66.7164 18.5746C66.7164 19.7461 65.7316 20.6959 64.5167 20.6959C63.3018 20.6959 62.317 19.7461 62.317 18.5746C62.317 17.403 63.3018 16.4533 64.5167 16.4533C65.7316 16.4533 66.7164 17.403 66.7164 18.5746Z" fill="#FFCFEA"/>
</svg>
