<svg width="48" height="53" viewBox="0 0 48 53" fill="none" xmlns="http://www.w3.org/2000/svg">
<path d="M47.6591 1.12577C47.5359 0.994128 47.3859 0.889128 47.2188 0.817479C47.0518 0.74583 46.8713 0.709109 46.6889 0.709662H2.11096C1.92907 0.709683 1.74917 0.746776 1.58271 0.818582C1.41624 0.890388 1.26685 0.995336 1.14403 1.12675C1.02122 1.25817 0.927656 1.41318 0.869303 1.58193C0.810951 1.75069 0.789083 1.92948 0.80509 2.10696L4.73844 45.7725C4.76152 46.0312 4.86409 46.2769 5.03262 46.4772C5.20114 46.6776 5.42771 46.8233 5.68244 46.895L24.0118 52.0321C24.2477 52.0968 24.4971 52.0968 24.733 52.0321L43.1148 46.895C43.37 46.8237 43.5972 46.6783 43.7662 46.4778C43.9352 46.2774 44.0382 46.0315 44.0614 45.7725L47.9948 2.10696C48.011 1.92937 47.9893 1.75041 47.9311 1.58148C47.8729 1.41256 47.7793 1.25736 47.6565 1.12577M41.5257 44.6655L24.3737 49.461L7.27151 44.668L3.5427 3.27822H45.2572L41.5257 44.6655ZM13.8061 14.8368H33.562L32.8645 22.5424H19.1555C18.8077 22.5424 18.4743 22.6778 18.2284 22.9186C17.9825 23.1595 17.8444 23.4861 17.8444 23.8267C17.8444 24.1673 17.9825 24.494 18.2284 24.7349C18.4743 24.9757 18.8077 25.111 19.1555 25.111H32.6311L31.7265 35.0847L24.3999 36.7158L17.0734 35.0847L16.7378 31.4168C16.6981 31.081 16.5282 30.7729 16.2632 30.5563C15.9982 30.3398 15.6583 30.2313 15.3139 30.2533C15.1424 30.2684 14.9756 30.3166 14.8231 30.3949C14.6706 30.4732 14.5354 30.5801 14.425 30.7096C14.3147 30.8392 14.2316 30.9887 14.1803 31.1497C14.129 31.3107 14.1105 31.48 14.126 31.648L14.5456 36.2457C14.571 36.516 14.6831 36.7714 14.8659 36.9754C15.0487 37.1794 15.2927 37.3214 15.563 37.381L24.1115 39.2818C24.3013 39.3249 24.4986 39.3249 24.6884 39.2818L33.2369 37.381C33.5076 37.3212 33.7519 37.1789 33.9347 36.9744C34.1176 36.7699 34.2295 36.5139 34.2543 36.2432L35.3714 23.9064C35.3714 23.8807 35.3871 23.855 35.3871 23.8267L35.3818 23.7959L36.2996 13.6655C36.3156 13.488 36.2938 13.3092 36.2354 13.1405C36.1771 12.9717 36.0835 12.8167 35.9607 12.6853C35.8379 12.5539 35.6885 12.4489 35.522 12.3771C35.3555 12.3053 35.1756 12.2682 34.9938 12.2682H13.8061C13.4584 12.2682 13.1249 12.4035 12.879 12.6444C12.6331 12.8852 12.495 13.2119 12.495 13.5525C12.495 13.8931 12.6331 14.2197 12.879 14.4606C13.1249 14.7014 13.4584 14.8368 13.8061 14.8368Z" fill="#173D45"/>
</svg>
