<svg width="34" height="37" viewBox="0 0 34 37" fill="none" xmlns="http://www.w3.org/2000/svg">
<path d="M13.092 33.5099C13.0918 33.3867 13.0648 33.2651 13.013 33.1536C12.9612 33.0421 12.8858 32.9434 12.7921 32.8645C12.6985 32.7856 12.5889 32.7284 12.471 32.697C12.3531 32.6655 12.2298 32.6605 12.1098 32.6824C9.46276 33.1786 6.10319 33.1853 5.12761 30.4168C4.5274 28.9375 3.56569 27.636 2.33241 26.6341C2.07734 26.5021 1.84739 26.3256 1.65317 26.1127C1.62166 25.9163 1.52223 25.7375 1.37257 25.6082C1.22291 25.4788 1.03269 25.4073 0.835747 25.4063H0.832418C0.611939 25.4063 0.400466 25.4947 0.244408 25.652C0.0883505 25.8094 0.000456671 26.0228 1.57134e-05 26.2456C-0.0049787 27.2043 1.18203 27.9225 1.53497 28.1126C2.41731 28.9115 3.11154 29.9022 3.56936 31.0072C4.14871 32.6555 5.91673 35.2037 11.4306 34.4922C11.4356 35.1061 11.4439 35.4223 11.4505 35.6645L11.4589 36.159C11.4589 36.3821 11.5466 36.596 11.7027 36.7537C11.8588 36.9114 12.0705 37 12.2913 37C12.512 37 12.7238 36.9114 12.8799 36.7537C13.036 36.596 13.1237 36.3821 13.1237 36.159L13.1153 35.6174C13.0963 34.9151 13.0886 34.2125 13.092 33.5099ZM31.8511 7.20249C31.7985 7.13522 31.7452 7.0685 31.6912 7.00234C31.8028 6.64913 31.891 6.28414 31.9543 5.91748C32.2122 4.1125 31.9839 2.27065 31.2933 0.585683C31.2482 0.471283 31.1787 0.368301 31.0898 0.284016C31.0009 0.199732 30.8948 0.136201 30.7789 0.0979162C30.5442 0.0188643 28.3933 -0.566456 23.9033 2.42238C20.1429 1.45677 16.2032 1.45677 12.4428 2.42238C7.95445 -0.531135 5.81684 0.0222282 5.57877 0.0928703C5.46059 0.13033 5.35211 0.193812 5.26114 0.278739C5.17017 0.363666 5.09898 0.467925 5.0527 0.584001C4.34945 2.29454 4.12262 4.16681 4.39676 5.99821C4.46003 6.3346 4.5416 6.66595 4.63816 6.99393C4.58106 7.06441 4.52556 7.1362 4.47168 7.20922C3.06276 9.0156 2.31313 11.2574 2.34905 13.5569C2.34573 14.0783 2.36903 14.5997 2.42064 15.1195C2.98667 22.9641 7.99607 25.1473 12.3212 25.8924C12.0401 26.4031 11.8295 26.9503 11.6953 27.5188C11.6483 27.7334 11.6863 27.958 11.8012 28.1446C11.916 28.3312 12.0986 28.4649 12.3099 28.5172C12.5211 28.5695 12.7442 28.5362 12.9315 28.4245C13.1187 28.3127 13.2552 28.1313 13.3118 27.9191C13.4666 27.1454 13.8529 26.439 14.4189 25.8974C14.5408 25.7903 14.6291 25.6496 14.6732 25.4926C14.7173 25.3356 14.7152 25.169 14.6672 25.0131C14.6192 24.8573 14.5274 24.7189 14.4029 24.6149C14.2784 24.5109 14.1266 24.4457 13.9661 24.4274C9.37786 23.9009 4.61319 22.367 4.08045 14.9664C4.03342 14.4981 4.01174 14.0276 4.01552 13.5569C3.98398 11.6265 4.61322 9.74426 5.79686 8.22848C5.92339 8.05692 6.06323 7.90218 6.20141 7.74744C6.30488 7.63186 6.3746 7.48955 6.40282 7.33634C6.43103 7.18312 6.41664 7.025 6.36123 6.87956C6.21936 6.50039 6.11128 6.10918 6.03826 5.7106C5.83883 4.35891 5.97147 2.97842 6.4245 1.69073C8.40128 1.96804 10.2684 2.77533 11.8318 4.02864C11.9316 4.09704 12.045 4.14257 12.1641 4.16203C12.2831 4.1815 12.4049 4.17444 12.521 4.14133C16.2238 3.12652 20.1273 3.12652 23.83 4.14133C23.9464 4.17435 24.0685 4.18137 24.1878 4.16191C24.3071 4.14245 24.4208 4.09697 24.5209 4.02864C26.0733 2.7609 27.9401 1.9476 29.9182 1.67727C30.3658 2.94632 30.5012 4.30628 30.3128 5.63996C30.2392 6.06357 30.1243 6.47879 29.9698 6.87956C29.9146 7.02515 29.9005 7.18336 29.929 7.33658C29.9575 7.48981 30.0276 7.63203 30.1313 7.74744C30.2778 7.91059 30.4227 8.09225 30.5525 8.25539C31.7388 9.75932 32.3688 11.6342 32.3338 13.5569C32.3372 14.038 32.3139 14.519 32.2639 14.9967C31.7362 22.3653 26.9532 23.8976 22.3467 24.4274C22.186 24.4455 22.034 24.5104 21.9093 24.6143C21.7846 24.7182 21.6925 24.8566 21.6443 25.0125C21.5961 25.1684 21.5939 25.3351 21.6379 25.4922C21.6819 25.6494 21.7703 25.7902 21.8922 25.8974C22.4666 26.4441 22.8511 27.1622 22.9893 27.9477C23.1308 28.5011 23.1974 29.0713 23.1857 29.6431V33.7807C23.1691 34.9161 23.1691 35.7688 23.1691 36.159C23.1691 36.3821 23.2568 36.596 23.4129 36.7537C23.569 36.9114 23.7807 37 24.0015 37C24.2223 37 24.434 36.9114 24.5901 36.7537C24.7462 36.596 24.8339 36.3821 24.8339 36.159C24.8339 35.7722 24.8339 34.9295 24.8505 33.7925V29.6431C24.8631 28.9313 24.7791 28.2211 24.6008 27.5323C24.4758 26.959 24.27 26.4067 23.9898 25.8924C28.3333 25.1489 33.3627 22.9658 33.9221 15.1531C33.977 14.6233 34.0036 14.0901 33.9987 13.5569C34.0365 11.2508 33.277 9.00361 31.8511 7.20249Z" fill="#173D45"/>
</svg>
