<svg width="47" height="64" viewBox="0 0 47 64" fill="none" xmlns="http://www.w3.org/2000/svg">
<path d="M15.1363 49.4936C5.33817 52.2427 21.0977 57.922 33.5741 52.5539C31.5304 51.7562 30.0647 50.8358 30.0647 50.8358C24.5014 51.892 21.9207 51.9751 16.8705 51.3957C12.7026 50.9163 15.1363 49.4936 15.1363 49.4936ZM32.0803 44.1306C24.7062 45.5554 20.4468 45.5098 15.052 44.951C10.8805 44.5177 13.6113 42.4874 13.6113 42.4874C2.82023 46.0846 19.6187 50.1662 34.7008 45.7359C33.0977 45.1688 32.0803 44.1306 32.0803 44.1306ZM37.859 13.0731C37.8595 13.0731 16.0435 18.5432 26.4624 30.6012C29.5378 34.1568 25.6557 37.3536 25.6557 37.3536C25.6557 37.3536 33.4612 33.3078 29.8773 28.2391C26.5287 23.5145 23.9618 21.1673 37.859 13.0731ZM42.9632 54.6766C42.9632 54.6766 44.7649 56.1686 40.9783 57.3216C33.7788 59.512 11.0071 60.1723 4.68213 57.4093C2.41027 56.4157 6.67269 55.038 8.01386 54.7473C9.4122 54.4433 10.2107 54.4987 10.2107 54.4987C7.68252 52.7108 -6.13294 58.0107 3.19496 59.5309C28.6301 63.6716 49.5598 57.6662 42.9632 54.6766ZM34.2214 39.1245C35.4441 38.2867 37.133 37.5592 37.133 37.5592C37.133 37.5592 32.3217 38.4231 27.5284 38.8276C21.6603 39.3219 15.366 39.4193 12.2063 38.9948C4.72604 37.9904 16.3074 35.2274 16.3074 35.2274C16.3074 35.2274 11.8086 34.9218 6.27856 37.6084C-0.262353 40.7847 22.4578 42.2326 34.2214 39.1245ZM37.085 46.8895C37.0299 47.0382 36.8461 47.2053 36.8461 47.2053C52.8119 42.9903 46.9418 32.3475 39.3078 35.0413C38.638 35.2792 38.2868 35.8324 38.2868 35.8324C38.2868 35.8324 38.71 35.6611 39.654 35.4632C43.5131 34.6557 49.0421 40.6514 37.085 46.8895ZM23.5927 35.1115C21.2371 29.7644 13.2493 25.0865 23.5963 16.88C36.4979 6.65294 29.8778 0 29.8778 0C32.5479 10.566 20.458 13.7576 16.094 20.3377C13.1222 24.8214 17.5526 29.6393 23.5927 35.1115ZM37.5169 61.6433C27.7214 63.4952 15.6386 63.2794 8.47435 62.0914C8.47435 62.0914 9.94162 63.3117 17.4832 63.7992C28.9579 64.536 46.5834 63.3891 47 57.9359C47.0005 57.9359 46.1985 60.0031 37.5169 61.6433Z" fill="#173D45"/>
</svg>
