<svg width="50" height="55" viewBox="0 0 50 55" fill="none" xmlns="http://www.w3.org/2000/svg">
<path d="M48.2857 1.70966L42.4384 46.8538L24.8964 53.0806L7.35446 46.8538L1.50714 1.70966H48.2857Z" stroke="#173D45" stroke-width="3" stroke-linecap="round" stroke-linejoin="round"/>
<path d="M11.74 14.1632H20.5109V39.0703L14.6636 35.957M38.0529 14.1632H30.7438C30.3561 14.1632 29.9842 14.3272 29.7101 14.6192C29.4359 14.9111 29.2819 15.307 29.2819 15.7199V25.0601C29.2819 25.4729 29.4359 25.8689 29.7101 26.1608C29.9842 26.4528 30.3561 26.6168 30.7438 26.6168H34.9041C35.1134 26.6168 35.3202 26.6647 35.5105 26.7571C35.7009 26.8496 35.8704 26.9845 36.0076 27.1528C36.1448 27.321 36.2465 27.5186 36.3058 27.7323C36.3651 27.946 36.3806 28.1708 36.3513 28.3914L35.1292 37.5136L29.2819 39.0703" stroke="#173D45" stroke-width="3" stroke-linecap="round" stroke-linejoin="round"/>
</svg>
