<svg width="38" height="37" viewBox="0 0 38 37" fill="none" xmlns="http://www.w3.org/2000/svg">
<path d="M9.14314 12.9576H1.69622C1.44933 12.9576 1.21256 13.055 1.03799 13.2284C0.863422 13.4019 0.765349 13.6371 0.765349 13.8823V36.0753C0.765349 36.3205 0.863422 36.5557 1.03799 36.7292C1.21256 36.9026 1.44933 37 1.69622 37H9.14314C9.39003 37 9.6268 36.9026 9.80137 36.7292C9.97594 36.5557 10.074 36.3205 10.074 36.0753V13.8823C10.074 13.6371 9.97594 13.4019 9.80137 13.2284C9.6268 13.055 9.39003 12.9576 9.14314 12.9576ZM8.21228 35.1506H2.62708V14.807H8.21228V35.1506ZM28.6913 12.9576C26.6714 12.9576 24.7072 13.6197 23.1061 14.8422V13.8823C23.1061 13.6371 23.0081 13.4019 22.8335 13.2284C22.6589 13.055 22.4222 12.9576 22.1753 12.9576H14.7283C14.4815 12.9576 14.2447 13.055 14.0701 13.2284C13.8955 13.4019 13.7975 13.6371 13.7975 13.8823V36.0753C13.7975 36.3205 13.8955 36.5557 14.0701 36.7292C14.2447 36.9026 14.4815 37 14.7283 37H22.1753C22.4222 37 22.6589 36.9026 22.8335 36.7292C23.0081 36.5557 23.1061 36.3205 23.1061 36.0753V25.9035C23.1061 25.1678 23.4004 24.4622 23.9241 23.9419C24.4478 23.4217 25.1581 23.1294 25.8987 23.1294C26.6394 23.1294 27.3497 23.4217 27.8734 23.9419C28.3971 24.4622 28.6913 25.1678 28.6913 25.9035V36.0753C28.6913 36.3205 28.7894 36.5557 28.964 36.7292C29.1386 36.9026 29.3753 37 29.6222 37H37.0691C37.316 37 37.5528 36.9026 37.7274 36.7292C37.9019 36.5557 38 36.3205 38 36.0753V22.2047C37.997 19.7531 37.0154 17.4028 35.2703 15.6692C33.5252 13.9357 31.1592 12.9605 28.6913 12.9576ZM36.1383 35.1506H30.5531V25.9035C30.5531 24.6773 30.0627 23.5013 29.1898 22.6342C28.317 21.7671 27.1331 21.28 25.8987 21.28C24.6643 21.28 23.4805 21.7671 22.6076 22.6342C21.7348 23.5013 21.2444 24.6773 21.2444 25.9035V35.1506H15.6592V14.807H21.2444V17.0319C21.2444 17.2234 21.3042 17.4102 21.4156 17.5665C21.527 17.7228 21.6846 17.8409 21.8664 17.9044C22.0483 17.9679 22.2456 17.9738 22.431 17.9212C22.6163 17.8686 22.7807 17.7601 22.9014 17.6107C23.8574 16.4069 25.1678 15.5294 26.6498 15.1007C28.1318 14.672 29.7116 14.7134 31.1687 15.2191C32.6259 15.7249 33.888 16.6697 34.7788 17.9219C35.6696 19.1742 36.1449 20.6713 36.1383 22.2047V35.1506ZM6.1048 0.015389C5.88604 7.31797e-05 5.66652 -0.00116252 5.44761 0.01169C4.75089 -0.0354023 4.05185 0.0601129 3.39381 0.292319C2.73576 0.524525 2.13271 0.888477 1.62203 1.36163C1.11134 1.83478 0.703889 2.40706 0.424911 3.04301C0.145932 3.67896 0.0013692 4.36504 0.000176613 5.05875C-0.00560532 5.74521 0.130636 6.42553 0.400452 7.05753C0.670269 7.68953 1.06791 8.25973 1.56871 8.73277C2.06951 9.20581 2.6628 9.5716 3.31179 9.80747C3.96078 10.0433 4.65162 10.1443 5.34149 10.104H5.39362C6.06045 10.1503 6.72996 10.0658 7.3639 9.85516C7.99785 9.64451 8.58382 9.3119 9.08837 8.87629C9.59291 8.44069 10.0061 7.91063 10.3045 7.31638C10.6028 6.72213 10.7804 6.07533 10.8271 5.41291C10.8738 4.75048 10.7887 4.08541 10.5766 3.45566C10.3646 2.8259 10.0298 2.24381 9.59125 1.7426C9.15274 1.2414 8.61915 0.830896 8.02095 0.53454C7.42274 0.238184 6.77163 0.0617769 6.1048 0.015389ZM6.03964 8.26008C5.82464 8.2795 5.60824 8.27764 5.39362 8.25453H5.34149C4.89342 8.28799 4.44325 8.22828 4.01973 8.07919C3.5962 7.93011 3.20862 7.69493 2.88174 7.38868C2.55485 7.08243 2.29583 6.71184 2.12123 6.30056C1.94663 5.88928 1.86028 5.44635 1.86768 5.00005C1.87509 4.55376 1.9761 4.1139 2.16425 3.70856C2.35241 3.30322 2.62358 2.94131 2.96046 2.64593C3.29733 2.35055 3.6925 2.1282 4.12075 1.99307C4.54899 1.85793 5.00089 1.81299 5.44761 1.86111C6.30181 1.78312 7.15222 2.04541 7.81175 2.59028C8.47128 3.13516 8.88591 3.91798 8.96442 4.76654C9.04293 5.61509 8.77889 6.45988 8.23038 7.11505C7.68188 7.77021 6.89385 8.18209 6.03964 8.26008Z" fill="#173D45"/>
</svg>
