<svg width="74" height="39" viewBox="0 0 74 39" fill="none" xmlns="http://www.w3.org/2000/svg">
<path d="M37 1.94652C56.8181 1.94652 72.0575 10.3119 72.0575 19.5C72.0575 28.6881 56.8066 37.0535 37 37.0535C17.1819 37.0535 1.9425 28.6881 1.9425 19.5C1.9425 10.3119 17.1934 1.94652 37 1.94652ZM37 0C16.5691 0 0 8.7246 0 19.5C0 30.2754 16.5691 39 37 39C57.4309 39 74 30.2754 74 19.5C74 8.7246 57.4309 0 37 0ZM25.2294 17.9358C24.3159 22.6283 21.09 22.1417 17.1241 22.1417L18.7081 13.9617C23.1019 13.9617 26.085 13.4866 25.2294 17.9358ZM11.2619 30.426H15.5053L16.5113 25.2353C21.2634 25.2353 24.2119 25.5829 26.9406 23.0223C29.9584 20.2415 30.7447 15.2941 28.5941 12.8146C27.4725 11.5169 25.6688 10.8797 23.2175 10.8797H15.0428L11.2619 30.426ZM32.7334 5.67736H36.9538L35.9478 10.8681C39.59 10.8681 42.9663 10.6016 44.5966 12.1078C46.3078 13.6836 45.4869 15.6996 43.6369 25.2121H39.3587C41.1394 16.0125 41.4747 15.2478 40.8272 14.5526C40.2028 13.8806 38.7806 14.0196 35.3466 14.0196L33.1728 25.2121H28.9525L32.7334 5.67736ZM58.3906 17.9358C57.4656 22.6979 54.1472 22.1417 50.2853 22.1417L51.8694 13.9617C56.2863 13.9617 59.2463 13.4866 58.3906 17.9358ZM44.4231 30.426H48.6781L49.6841 25.2353C54.6791 25.2353 57.4425 25.525 60.1134 23.0223C63.1313 20.2415 63.9175 15.2941 61.7669 12.8146C60.6453 11.5169 58.8416 10.8797 56.3903 10.8797H48.2156L44.4231 30.426Z" fill="#173D45"/>
</svg>
