<svg width="77" height="75" viewBox="0 0 77 75" fill="none" xmlns="http://www.w3.org/2000/svg">
<path d="M60.1563 27.1875L57.9906 26.4844C57.9906 26.0156 58.2313 25.5469 58.2313 25.0781C59.9156 17.3437 58.7125 11.0156 55.1031 8.90623C51.4938 7.03123 45.7188 8.90623 39.9438 13.8281C39.4625 14.2969 38.7406 14.7656 38.2594 15.2344C37.7781 15 37.5375 14.5312 37.0563 14.2969C31.2813 9.1406 25.2656 7.03123 21.6563 9.1406C18.0469 11.0156 17.0844 17.1094 18.5281 24.375C18.7688 25.0781 18.7688 25.7812 19.0094 26.4844C18.0469 26.7187 17.325 26.9531 16.6031 27.1875C9.38438 29.5312 4.8125 33.5156 4.8125 37.2656C4.8125 41.25 9.625 45.4687 17.0844 47.8125C17.5656 48.0469 18.2875 48.2812 19.0094 48.2812C18.7688 48.9844 18.5281 49.9219 18.5281 50.625C17.0844 57.8906 18.2875 63.5156 21.6563 65.625C25.2656 67.7344 31.2813 65.625 37.2969 60.4687C37.7781 60 38.2594 59.5312 38.7406 59.2969C39.2219 59.7656 39.9438 60.4687 40.6656 60.9375C46.4406 65.8594 51.975 67.7344 55.5844 65.625C59.1938 63.5156 60.3969 57.4219 58.9531 49.9219C58.9531 49.4531 58.7125 48.75 58.4719 48.0469C58.9531 47.8125 59.4344 47.8125 59.675 47.5781C67.375 45 72.4281 41.0156 72.4281 37.0312C72.1875 33.5156 67.375 29.7656 60.1563 27.1875ZM42.1094 16.1719C47.1625 11.9531 51.7344 10.3125 53.9 11.4844C56.0656 12.6562 57.0281 17.8125 55.5844 24.6094C55.5844 25.0781 55.3438 25.5469 55.3438 26.0156C52.4563 25.3125 49.3281 24.8437 46.4406 24.6094C44.7563 22.2656 42.8313 19.9219 40.6656 17.5781L42.1094 16.1719ZM24.7844 40.7812C25.5063 41.9531 25.9875 43.125 26.7094 44.2969C27.4313 45.4687 28.1531 46.6406 28.875 47.5781C26.7094 47.3437 24.7844 47.1094 22.6188 46.6406C23.1 44.7656 23.8219 42.8906 24.7844 40.7812ZM24.7844 34.2187C23.8219 32.3437 23.3406 30.4687 22.6188 28.5937C24.5438 28.125 26.7094 27.8906 28.6344 27.6562C27.9125 28.8281 27.1906 29.7656 26.4688 30.9375C25.9875 31.875 25.2656 33.0469 24.7844 34.2187ZM26.2281 37.5C27.1906 35.625 28.1531 33.9844 29.1156 32.1094C30.0781 30.4687 31.2813 28.5937 32.4844 26.9531C34.4094 26.7187 36.575 26.7187 38.7406 26.7187C40.9063 26.7187 42.8313 26.7187 44.9969 26.9531C46.2 28.5937 47.1625 30.2344 48.125 32.1094C49.0875 33.75 50.05 35.625 51.0125 37.5C50.05 39.375 49.0875 41.0156 48.125 42.8906C47.1625 44.5312 45.9594 46.4062 44.9969 48.0469C43.0719 48.2812 40.9063 48.2812 38.7406 48.2812C36.575 48.2812 34.65 48.2812 32.725 48.0469C31.5219 46.4062 30.5594 44.7656 29.3563 42.8906C28.1531 41.0156 27.1906 39.375 26.2281 37.5ZM50.2906 44.2969C51.0125 43.125 51.7344 41.9531 52.2156 40.7812C53.1781 42.6562 53.9 44.5312 54.3813 46.6406C52.2156 47.1094 50.2906 47.3437 48.125 47.5781C49.0875 46.4062 49.8094 45.2344 50.2906 44.2969ZM52.2156 34.2187C51.4938 33.0469 51.0125 31.875 50.2906 30.7031C49.5688 29.5312 48.8469 28.5937 48.3656 27.4219C50.5313 27.6562 52.4563 28.125 54.6219 28.3594C53.9 30.4687 53.1781 32.3437 52.2156 34.2187ZM38.5 19.4531C39.9438 20.8594 41.1469 22.5 42.35 24.1406C39.7031 23.9062 37.0563 23.9062 34.4094 24.1406C35.8531 22.5 37.2969 20.8594 38.5 19.4531ZM23.1 11.4844C25.2656 10.3125 30.3188 11.9531 35.6125 16.6406L36.575 17.5781C34.4094 19.6875 32.4844 22.0312 30.8 24.6094C27.6719 24.8437 24.7844 25.3125 21.8969 26.0156C21.6563 25.3125 21.6562 24.6094 21.4156 23.9062C19.9719 17.5781 20.9344 12.6562 23.1 11.4844ZM19.7313 45.9375C19.25 45.7031 18.5281 45.7031 18.0469 45.4687C14.6781 44.2969 12.0313 42.8906 10.1063 41.4844C8.42188 40.0781 7.7 38.6719 7.7 37.5C7.7 35.1562 11.3094 32.1094 17.5656 30C18.2875 29.7656 19.0094 29.5312 19.9719 29.2969C20.6938 32.1094 21.6563 34.9219 23.1 37.5C21.6563 40.3125 20.6938 43.125 19.7313 45.9375ZM35.3719 58.8281C32.725 61.1719 30.0781 62.5781 27.9125 63.5156C25.7469 64.2187 24.3031 64.2187 23.1 63.75C20.9344 62.5781 19.9719 57.8906 21.175 51.7969C21.4156 50.8594 21.6563 50.1562 21.6563 49.2187C24.5438 49.9219 27.6719 50.3906 30.8 50.3906C32.4844 52.7344 34.4094 55.0781 36.575 57.4219C36.0938 57.8906 35.8531 58.3594 35.3719 58.8281ZM38.5 55.5469C37.0563 54.1406 35.8531 52.5 34.4094 50.8594H42.35C41.3875 52.5 39.9438 54.1406 38.5 55.5469ZM56.0656 59.5312C55.5844 61.6406 54.8625 63.0469 53.9 63.5156C51.7344 64.6875 47.1625 63.0469 42.35 59.0625C41.8688 58.5937 41.1469 58.125 40.6656 57.6562C42.5906 55.5469 44.5156 53.2031 46.2 50.625C49.3281 50.3906 52.2156 49.9219 55.3438 49.2187C55.5844 49.6875 55.5844 50.3906 55.825 50.8594C56.5469 54.1406 56.5469 57.1875 56.0656 59.5312ZM58.4719 45.4687C57.9906 45.4687 57.75 45.7031 57.2688 45.7031C56.3063 42.8906 55.1031 40.0781 53.9 37.2656C55.1031 34.6875 56.3063 31.875 57.2688 29.0625C57.9906 29.2969 58.7125 29.5312 59.1938 29.7656C65.45 31.875 69.3 34.9219 69.3 37.2656C69.3 40.0781 65.2094 43.3594 58.4719 45.4687Z" fill="#173D45"/>
<path d="M38.5 43.3593C39.7031 43.3593 40.9062 43.125 41.8687 42.4219C42.8312 41.7187 43.5531 40.7812 44.0344 39.8437C44.5156 38.6718 44.5156 37.5 44.275 36.3281C44.0344 35.1562 43.5531 34.2187 42.5906 33.2812C41.8687 32.3437 40.6656 31.875 39.4625 31.6406C38.2594 31.4062 37.0562 31.6406 35.8531 31.875C34.65 32.3437 33.6875 33.0468 33.2062 33.9843C32.4844 34.9218 32.2437 36.0937 32.2437 37.2656C32.2437 37.9687 32.4844 38.9062 32.725 39.6093C32.9656 40.3125 33.4469 41.0156 33.9281 41.4844C34.4094 41.9531 35.1312 42.4219 35.8531 42.6562C36.8156 43.125 37.7781 43.3593 38.5 43.3593Z" fill="#173D45"/>
</svg>
