<svg width="46" height="51" viewBox="0 0 46 51" fill="none" xmlns="http://www.w3.org/2000/svg">
<path d="M1.02991 24.3913C1.30097 24.3913 1.56093 24.2745 1.7526 24.0666C1.94427 23.8587 2.05195 23.5767 2.05195 23.2826V3.32609C2.05195 3.03204 2.15963 2.75004 2.3513 2.54212C2.54298 2.3342 2.80294 2.21739 3.074 2.21739H26.5811V16.6304C26.5811 16.9245 26.6888 17.2065 26.8804 17.4144C27.0721 17.6223 27.3321 17.7391 27.6031 17.7391H40.8898V23.2826C40.8898 23.5767 40.9974 23.8587 41.1891 24.0666C41.3808 24.2745 41.6407 24.3913 41.9118 24.3913C42.1829 24.3913 42.4428 24.2745 42.6345 24.0666C42.8262 23.8587 42.9339 23.5767 42.9339 23.2826V16.6304C42.934 16.4848 42.9076 16.3406 42.8563 16.206C42.805 16.0714 42.7298 15.9491 42.6349 15.846L28.3262 0.324294C28.2313 0.221369 28.1185 0.139753 27.9944 0.0841097C27.8704 0.0284664 27.7374 -0.00011418 27.6031 3.4281e-07H3.074C2.26081 3.4281e-07 1.48092 0.350426 0.90591 0.974189C0.330897 1.59795 0.00785844 2.44395 0.00785844 3.32609V23.2826C0.00785844 23.5767 0.115538 23.8587 0.307209 24.0666C0.498881 24.2745 0.758842 24.3913 1.02991 24.3913ZM28.6252 3.78342L39.4461 15.5217H28.6252V3.78342ZM46 49.8913C46 50.1853 45.8923 50.4674 45.7006 50.6753C45.509 50.8832 45.249 51 44.978 51H37.8236C37.5526 51 37.2926 50.8832 37.1009 50.6753C36.9093 50.4674 36.8016 50.1853 36.8016 49.8913V34.3696C36.8016 34.0755 36.9093 33.7935 37.1009 33.5856C37.2926 33.3777 37.5526 33.2609 37.8236 33.2609C38.0947 33.2609 38.3546 33.3777 38.5463 33.5856C38.738 33.7935 38.8457 34.0755 38.8457 34.3696V48.7826H44.978C45.249 48.7826 45.509 48.8994 45.7006 49.1073C45.8923 49.3153 46 49.5973 46 49.8913ZM11.2121 46.5098C11.1482 47.1993 10.945 47.865 10.6169 48.4596C10.2887 49.0541 9.84374 49.5629 9.3136 49.9495C8.18424 50.7561 6.74826 51 5.42471 51C4.19996 50.989 2.98121 50.813 1.79644 50.4761C1.54447 50.3888 1.33353 50.1989 1.20796 49.9463C1.08239 49.6938 1.05198 49.3983 1.12312 49.1219C1.19426 48.8455 1.36141 48.6098 1.58942 48.4644C1.81744 48.3189 2.08856 48.275 2.34579 48.3419C3.42405 48.6662 6.57707 49.2538 8.17913 48.098C8.46516 47.8883 8.70365 47.611 8.87669 47.287C9.04972 46.9629 9.1528 46.6005 9.17818 46.2271C9.39025 44.4393 8.05904 43.8184 5.18197 42.9176C2.70862 42.1415 -0.367744 41.177 0.0359649 37.7151C0.0978261 37.0423 0.29511 36.3925 0.613878 35.8116C0.932647 35.2306 1.36513 34.7327 1.88076 34.3529C3.0459 33.502 4.69139 33.1445 6.76104 33.2941C7.663 33.3586 8.5581 33.5079 9.43625 33.7404C9.68948 33.8226 9.9035 34.0081 10.0334 34.2579C10.1632 34.5076 10.1988 34.8022 10.1327 35.0799C10.0665 35.3575 9.90383 35.5965 9.67868 35.7468C9.45354 35.8971 9.18349 35.9468 8.92522 35.8857C7.82652 35.5725 4.63007 35.0209 3.03312 36.1934C2.75768 36.3943 2.52819 36.6608 2.36213 36.9725C2.19608 37.2843 2.09785 37.633 2.07495 37.9922C1.90631 39.4252 3.06889 39.9324 5.75943 40.7861C8.25323 41.5761 11.672 42.6404 11.2121 46.5098ZM23.515 33.2609C19.5698 33.2609 16.3606 37.2383 16.3606 42.1304C16.3606 47.0226 19.5698 51 23.515 51C25.0405 50.9907 26.5149 50.4023 27.6823 49.337L28.9241 50.6813C29.1175 50.8802 29.3749 50.9894 29.6414 50.9854C29.9079 50.9814 30.1625 50.8647 30.3508 50.6601C30.5391 50.4555 30.6463 50.1791 30.6494 49.89C30.6526 49.6009 30.5515 49.3219 30.3678 49.1124L29.0749 47.7099C30.1249 46.0734 30.6819 44.1243 30.6693 42.1304C30.6693 37.2383 27.4601 33.2609 23.515 33.2609ZM23.515 48.7826C20.7043 48.7826 18.4047 45.7974 18.4047 42.1304C18.4047 38.4634 20.7043 35.4783 23.515 35.4783C26.3256 35.4783 28.6252 38.4634 28.6252 42.1304C28.6334 43.5346 28.2794 44.9133 27.6031 46.1107L26.277 44.6721C26.183 44.5649 26.0701 44.4792 25.945 44.4201C25.82 44.361 25.6853 44.3296 25.5489 44.3279C25.4125 44.3261 25.2771 44.354 25.1508 44.4099C25.0245 44.4657 24.9097 44.5485 24.8134 44.6532C24.717 44.7579 24.6409 44.8825 24.5896 45.0197C24.5383 45.1568 24.5129 45.3037 24.5148 45.4516C24.5166 45.5996 24.5458 45.7457 24.6005 45.8812C24.6552 46.0168 24.7344 46.1391 24.8334 46.2409L26.231 47.7571C25.4545 48.414 24.4997 48.7745 23.515 48.7826Z" fill="#173D45"/>
</svg>
